HIERARCHY
ROOT Hips
{
 OFFSET 0.000000 0.000000 0.000000
 CHANNELS 6 Xposition Yposition Zposition Yrotation Xrotation Zrotation
 JOINT Chest
 {
  OFFSET 0.000000 9.588913 -0.003946
  CHANNELS 3 Yrotation Xrotation Zrotation
  JOINT Chest2
  {
   OFFSET 0.000000 9.541882 0.008053
   CHANNELS 3 Yrotation Xrotation Zrotation
   JOINT Chest3
   {
    OFFSET 0.000000 9.501360 0.000000
    CHANNELS 3 Yrotation Xrotation Zrotation
    JOINT Chest4
    {
     OFFSET 0.000000 9.491660 0.000000
     CHANNELS 3 Yrotation Xrotation Zrotation
     JOINT Neck
     {
      OFFSET 0.000000 14.331917 0.000000
      CHANNELS 3 Yrotation Xrotation Zrotation
      JOINT Head
      {
       OFFSET 0.000000 8.884799 0.017034
       CHANNELS 3 Yrotation Xrotation Zrotation
       End Site
       {
        OFFSET 0.000000 16.896195 0.008993
       }
      }
     }
     JOINT RightCollar
     {
      OFFSET -2.923010 9.499495 0.000000
      CHANNELS 3 Yrotation Xrotation Zrotation
      JOINT RightShoulder
      {
       OFFSET -13.795216 0.000000 0.000000
       CHANNELS 3 Yrotation Xrotation Zrotation
       JOINT RightElbow
       {
        OFFSET -30.272209 0.000000 0.000000
        CHANNELS 3 Yrotation Xrotation Zrotation
        JOINT RightWrist
        {
         OFFSET -24.478199 0.000000 0.000000
         CHANNELS 3 Yrotation Xrotation Zrotation
         End Site
         {
          OFFSET -18.090752 0.000000 0.000000
         }
        }
       }
      }
     }
     JOINT LeftCollar
     {
      OFFSET 2.923010 9.499495 0.000000
      CHANNELS 3 Yrotation Xrotation Zrotation
      JOINT LeftShoulder
      {
       OFFSET 13.795216 0.000000 0.000000
       CHANNELS 3 Yrotation Xrotation Zrotation
       JOINT LeftElbow
       {
        OFFSET 30.272209 0.000000 0.000000
        CHANNELS 3 Yrotation Xrotation Zrotation
        JOINT LeftWrist
        {
         OFFSET 24.478199 0.000000 0.000000
         CHANNELS 3 Yrotation Xrotation Zrotation
         End Site
         {
          OFFSET 18.090752 0.000000 0.000000
         }
        }
       }
      }
     }
    }
   }
  }
 }
 JOINT RightHip
 {
  OFFSET -7.826875 0.019532 0.001973
  CHANNELS 3 Yrotation Xrotation Zrotation
  JOINT RightKnee
  {
   OFFSET 0.000000 -40.546152 -0.001885
   CHANNELS 3 Yrotation Xrotation Zrotation
   JOINT RightAnkle
   {
    OFFSET 0.000000 -39.417092 -0.003189
    CHANNELS 3 Yrotation Xrotation Zrotation
    JOINT RightToe
    {
     OFFSET 0.000000 -7.579396 17.243563
     CHANNELS 3 Yrotation Xrotation Zrotation
     End Site
     {
      OFFSET 0.000000 -1.500329 6.694466
     }
    }
   }
  }
 }
 JOINT LeftHip
 {
  OFFSET 7.826875 0.019532 0.001973
  CHANNELS 3 Yrotation Xrotation Zrotation
  JOINT LeftKnee
  {
   OFFSET 0.000000 -40.546152 -0.001885
   CHANNELS 3 Yrotation Xrotation Zrotation
   JOINT LeftAnkle
   {
    OFFSET 0.000000 -39.417092 -0.003189
    CHANNELS 3 Yrotation Xrotation Zrotation
    JOINT LeftToe
    {
     OFFSET 0.000000 -7.579396 17.243563
     CHANNELS 3 Yrotation Xrotation Zrotation
     End Site
     {
      OFFSET 0.000000 -1.500329 6.694466
     }
    }
   }
  }
 }
}
MOTION
Frames: 13
Frame Time: 0.008333
0.000000 87.345680 0.000000 0.000000 -5.767889 0.000000 0.000000 11.653876 0.000000 0.000000 -5.885988 0.000000 0.000000 -0.000000 0.000000 0.000000 -0.000000 0.000000 0.000000 12.528808 0.000000 0.000000 0.711711 0.000000 0.000000 -0.000000 0.000000 0.000000 -0.000000 0.000000 2.309063 -0.000000 0.000000 -2.309063 -0.000000 -0.000000 0.000000 -0.000000 0.000000 0.000000 0.000000 0.000000 -2.309063 0.000000 0.000000 2.309063 -0.000000 0.000000 0.000000 8.520374 0.000000 0.000000 1.905768 0.000000 -0.000000 -4.658254 0.000000 0.000000 -0.000000 0.000000 0.000000 8.520374 0.000000 0.000000 1.905768 0.000000 -0.000000 -4.658254 0.000000 0.000000 -0.000000 0.000000
-12.066954 88.875357 -8.866605 138.833128 -9.120135 -0.861091 0.545669 2.526839 0.674577 0.300748 1.437712 0.459187 0.377765 1.796758 0.575208 0.300748 1.437712 0.459187 -21.161857 26.153522 1.119595 -25.679601 5.693543 6.124755 -4.236695 0.363380 -0.739815 -1.852462 -0.567026 90.177119 0.263446 -1.192541 -0.461349 -0.391660 -4.432027 -0.608075 -0.617213 0.641806 -2.519260 2.568564 0.344329 -89.984415 -1.315420 1.676769 0.464511 -1.071425 4.215686 3.047032 -2.655946 2.045030 -3.493668 2.009235 5.020639 -0.576046 3.564445 0.714806 1.146088 -0.005449 -0.149418 0.006802 10.727408 14.198953 1.379622 8.076399 0.108499 1.134002 5.427267 -6.747409 -0.628780 0.012751 0.171374 0.005624
-12.066232 88.875469 -8.871814 138.844515 -9.116983 -0.863029 0.545906 2.525292 0.673854 0.300672 1.436413 0.458429 0.377666 1.795136 0.574259 0.300672 1.436413 0.458429 -21.164043 26.151084 1.126532 -25.684632 5.691778 6.133653 -4.238123 0.360884 -0.731586 -1.856236 -0.558333 90.175878 0.268322 -1.201852 -0.461226 -0.387910 -4.435730 -0.605146 -0.614432 0.641960 -2.513412 2.568333 0.334544 -89.994318 -1.330576 1.643440 0.453151 -1.131792 4.160476 3.073387 -2.654093 2.041231 -3.494705 2.007709 5.031718 -0.577378 3.557287 0.707189 1.147921 -0.005440 -0.150887 0.006433 10.726295 14.198158 1.372900 8.079972 0.103617 1.134504 5.463006 -6.743041 -0.629004 0.015677 0.168563 0.008280
-12.065349 88.875525 -8.878058 138.852720 -9.114750 -0.865217 0.547176 2.523308 0.673344 0.301350 1.435152 0.458159 0.378510 1.793558 0.573923 0.301350 1.435152 0.458159 -21.166543 26.148731 1.132697 -25.689868 5.690105 6.141692 -4.239283 0.359563 -0.726115 -1.853132 -0.550646 90.178092 0.272574 -1.215352 -0.462190 -0.385571 -4.437250 -0.606509 -0.610030 0.642424 -2.509489 2.568969 0.324947 -90.002559 -1.344571 1.606530 0.439580 -1.198857 4.104510 3.107599 -2.647479 2.037323 -3.495226 2.005150 5.045581 -0.579179 3.550085 0.698257 1.150711 -0.005119 -0.152751 0.005969 10.730517 14.198825 1.371331 8.082488 0.100626 1.132749 5.487153 -6.740294 -0.628489 0.016984 0.165913 0.009425
-12.064697 88.875452 -8.885132 138.857871 -9.112105 -0.866534 0.549440 2.521774 0.672308 0.303096 1.434627 0.458452 0.380693 1.792900 0.574296 0.303096 1.434627 0.458452 -21.168948 26.143935 1.138868 -25.694935 5.685178 6.149822 -4.240972 0.354824 -0.722727 -1.846225 -0.543243 90.180039 0.276444 -1.230083 -0.461482 -0.384281 -4.438364 -0.609523 -0.606371 0.641296 -2.508269 2.571511 0.313073 -90.011363 -1.358120 1.568070 0.426010 -1.272643 4.048067 3.147189 -2.638500 2.033392 -3.498101 2.003357 5.058456 -0.578212 3.543347 0.689699 1.151693 -0.004781 -0.154225 0.006457 10.739797 14.203236 1.380388 8.081433 0.095334 1.124801 5.474869 -6.737640 -0.626908 0.013870 0.163420 0.008490
-12.064068 88.875267 -8.892808 138.860102 -9.109998 -0.868392 0.553039 2.522733 0.671823 0.305462 1.435389 0.458744 0.383653 1.793849 0.574670 0.305462 1.435389 0.458744 -21.170524 26.136455 1.146694 -25.699308 5.676712 6.159863 -4.243179 0.343373 -0.717554 -1.838570 -0.534837 90.177245 0.279572 -1.241668 -0.458534 -0.384672 -4.441700 -0.609406 -0.604935 0.635533 -2.507612 2.578825 0.300455 -90.020584 -1.374532 1.531621 0.412497 -1.351396 3.992920 3.193510 -2.630622 2.032287 -3.501380 2.002780 5.066257 -0.576239 3.540202 0.683273 1.152438 -0.004814 -0.155054 0.007098 10.754301 14.210340 1.390303 8.081704 0.085900 1.113577 5.467931 -6.734184 -0.623561 0.011318 0.161775 0.008422
-12.063073 88.875051 -8.900979 138.861228 -9.110532 -0.872468 0.557751 2.525782 0.671939 0.307875 1.436923 0.458628 0.386671 1.795764 0.574536 0.307875 1.436923 0.458628 -21.171511 26.129008 1.156208 -25.703375 5.668364 6.171793 -4.245630 0.329798 -0.710314 -1.832127 -0.526289 90.174702 0.283287 -1.252377 -0.455841 -0.387973 -4.445783 -0.607683 -0.605960 0.627243 -2.505337 2.590758 0.288570 -90.027597 -1.393301 1.499090 0.399768 -1.435198 3.940974 3.248137 -2.627838 2.037304 -3.503492 2.001842 5.067169 -0.573407 3.543169 0.679309 1.152427 -0.004869 -0.155321 0.007808 10.772082 14.219775 1.395503 8.083982 0.073585 1.104628 5.488270 -6.730192 -0.620134 0.012498 0.161268 0.010418
-12.061979 88.874819 -8.909435 138.866909 -9.112632 -0.878095 0.562786 2.529091 0.671775 0.310242 1.438359 0.458305 0.389631 1.797556 0.574143 0.310242 1.438359 0.458305 -21.173686 26.122921 1.166040 -25.709197 5.662157 6.184315 -4.250950 0.318616 -0.702819 -1.827094 -0.519519 90.175593 0.288201 -1.265168 -0.455982 -0.392958 -4.450849 -0.606244 -0.614622 0.618923 -2.502956 2.604879 0.275929 -90.031874 -1.410561 1.471368 0.388381 -1.527634 3.887352 3.311842 -2.637225 2.047213 -3.505911 2.001955 5.062127 -0.568684 3.549287 0.676912 1.150195 -0.004729 -0.154974 0.008779 10.782712 14.231340 1.398875 8.085435 0.059028 1.097924 5.513212 -6.725504 -0.617688 0.014808 0.161768 0.012963
-12.061440 88.874535 -8.917865 138.879199 -9.113269 -0.882303 0.565992 2.530912 0.669669 0.312342 1.439341 0.457806 0.392255 1.798781 0.573528 0.312342 1.439341 0.457806 -21.176820 26.118294 1.175462 -25.716243 5.658070 6.196497 -4.258378 0.310152 -0.695170 -1.824221 -0.514460 90.176237 0.293399 -1.278035 -0.457319 -0.395461 -4.456605 -0.606606 -0.629501 0.610512 -2.502141 2.615987 0.261703 -90.034196 -1.426800 1.445910 0.379495 -1.631238 3.829939 3.381668 -2.659394 2.057868 -3.510177 2.004320 5.053117 -0.565287 3.555108 0.674471 1.148943 -0.004791 -0.153323 0.008874 10.779555 14.244590 1.405497 8.086394 0.042068 1.092004 5.499228 -6.719877 -0.617886 0.013214 0.162623 0.014013
-12.060957 88.874312 -8.926204 138.894002 -9.115100 -0.885171 0.566495 2.531799 0.667526 0.313432 1.439937 0.457073 0.393616 1.799525 0.572618 0.313432 1.439937 0.457073 -21.179215 26.115860 1.183443 -25.721878 5.656508 6.206697 -4.264414 0.305154 -0.687168 -1.822215 -0.511350 90.172508 0.295645 -1.288778 -0.457074 -0.394888 -4.460989 -0.607840 -0.638676 0.604281 -2.503529 2.620269 0.247412 -90.035626 -1.443615 1.422862 0.375499 -1.745635 3.772750 3.451890 -2.685467 2.069226 -3.514703 2.010491 5.045642 -0.564899 3.557752 0.669867 1.150802 -0.004853 -0.151113 0.007708 10.768699 14.259961 1.405638 8.087943 0.021993 1.088416 5.495107 -6.712332 -0.617312 0.011784 0.163409 0.014841
-12.059908 88.874252 -8.934379 138.908930 -9.120853 -0.887761 0.564149 2.532480 0.666614 0.312894 1.440493 0.456435 0.392941 1.800221 0.571818 0.312894 1.440493 0.456435 -21.180258 26.115084 1.188757 -25.724885 5.656446 6.213329 -4.265605 0.303693 -0.678669 -1.820258 -0.511082 90.165364 0.291973 -1.297240 -0.458533 -0.392641 -4.465307 -0.604626 -0.635555 0.600714 -2.508131 2.618509 0.233263 -90.037074 -1.457361 1.404820 0.376721 -1.868866 3.718506 3.523318 -2.707637 2.081239 -3.519058 2.019131 5.045664 -0.564538 3.555319 0.661655 1.153778 -0.004172 -0.149743 0.005913 10.757893 14.277892 1.400708 8.091489 0.002121 1.087954 5.505083 -6.704403 -0.615617 0.011760 0.163802 0.015297
-12.058479 88.874274 -8.941852 138.924238 -9.127277 -0.890305 0.559094 2.532912 0.665916 0.310764 1.441222 0.456139 0.390278 1.801136 0.571440 0.310764 1.441222 0.456139 -21.179002 26.114020 1.191835 -25.724055 5.655131 6.216782 -4.259854 0.303989 -0.670214 -1.820690 -0.514775 90.159113 0.286035 -1.301134 -0.463835 -0.391098 -4.471799 -0.599480 -0.621717 0.597149 -2.516303 2.609646 0.217009 -90.037670 -1.466373 1.387886 0.380497 -1.995296 3.665172 3.599205 -2.722823 2.090949 -3.523387 2.024711 5.052187 -0.562109 3.549547 0.651221 1.154391 -0.002419 -0.149410 0.005194 10.751179 14.296119 1.403810 8.095950 -0.014807 1.088187 5.475514 -6.698216 -0.615595 0.009581 0.163939 0.013588
-12.056796 88.874275 -8.948040 138.935989 -9.130558 -0.893639 0.554266 2.533608 0.665484 0.308536 1.442046 0.456101 0.387494 1.802169 0.571385 0.308536 1.442046 0.456101 -21.175488 26.111765 1.194960 -25.720109 5.651678 6.219839 -4.249739 0.303412 -0.662156 -1.823392 -0.522820 90.153994 0.281330 -1.300397 -0.470331 -0.392499 -4.477813 -0.598103 -0.602423 0.592197 -2.526565 2.596075 0.197219 -90.036663 -1.474270 1.365790 0.382800 -2.114788 3.610493 3.676930 -2.727004 2.095295 -3.524839 2.025255 5.062183 -0.559671 3.542366 0.641164 1.152727 -0.000146 -0.150146 0.005978 10.755397 14.311438 1.416572 8.097059 -0.030869 1.086184 5.416782 -6.693113 -0.616301 0.006354 0.164265 0.010715
